<mxfile host="Electron" modified="2023-09-18T10:30:36.218Z" agent="Mozilla/5.0 (Windows NT 10.0; Win64; x64) AppleWebKit/537.36 (KHTML, like Gecko) draw.io/21.6.8 Chrome/114.0.5735.289 Electron/25.5.0 Safari/537.36" etag="lTtq1w5Vqw0C24-6tP3k" version="21.6.8" type="device">
  <diagram name="Página-1" id="Sjx4ySR3cas9cbZfAMXH">
    <mxGraphModel dx="1035" dy="616" grid="1" gridSize="10" guides="1" tooltips="1" connect="1" arrows="1" fold="1" page="1" pageScale="1" pageWidth="1169" pageHeight="827" math="0" shadow="0">
      <root>
        <mxCell id="0" />
        <mxCell id="1" parent="0" />
        <mxCell id="LzIiBjol5RYh9NfpuOXS-1" value="Cliente" style="swimlane;fontStyle=0;childLayout=stackLayout;horizontal=1;startSize=26;horizontalStack=0;resizeParent=1;resizeParentMax=0;resizeLast=0;collapsible=1;marginBottom=0;align=center;fontSize=14;strokeColor=#FF0000;fillColor=#FF3333;shadow=1;" parent="1" vertex="1">
          <mxGeometry x="50" y="40" width="160" height="296" as="geometry" />
        </mxCell>
        <mxCell id="LzIiBjol5RYh9NfpuOXS-2" value="id_cliente" style="text;strokeColor=none;fillColor=none;spacingLeft=4;spacingRight=4;overflow=hidden;rotatable=0;points=[[0,0.5],[1,0.5]];portConstraint=eastwest;fontSize=12;whiteSpace=wrap;html=1;" parent="LzIiBjol5RYh9NfpuOXS-1" vertex="1">
          <mxGeometry y="26" width="160" height="30" as="geometry" />
        </mxCell>
        <mxCell id="LzIiBjol5RYh9NfpuOXS-3" value="login_cliente" style="text;strokeColor=none;fillColor=none;spacingLeft=4;spacingRight=4;overflow=hidden;rotatable=0;points=[[0,0.5],[1,0.5]];portConstraint=eastwest;fontSize=12;whiteSpace=wrap;html=1;" parent="LzIiBjol5RYh9NfpuOXS-1" vertex="1">
          <mxGeometry y="56" width="160" height="30" as="geometry" />
        </mxCell>
        <mxCell id="LzIiBjol5RYh9NfpuOXS-4" value="senha_cliente" style="text;strokeColor=none;fillColor=none;spacingLeft=4;spacingRight=4;overflow=hidden;rotatable=0;points=[[0,0.5],[1,0.5]];portConstraint=eastwest;fontSize=12;whiteSpace=wrap;html=1;" parent="LzIiBjol5RYh9NfpuOXS-1" vertex="1">
          <mxGeometry y="86" width="160" height="30" as="geometry" />
        </mxCell>
        <mxCell id="LzIiBjol5RYh9NfpuOXS-5" value="nome_cliente" style="text;strokeColor=none;fillColor=none;spacingLeft=4;spacingRight=4;overflow=hidden;rotatable=0;points=[[0,0.5],[1,0.5]];portConstraint=eastwest;fontSize=12;whiteSpace=wrap;html=1;" parent="LzIiBjol5RYh9NfpuOXS-1" vertex="1">
          <mxGeometry y="116" width="160" height="30" as="geometry" />
        </mxCell>
        <mxCell id="LzIiBjol5RYh9NfpuOXS-6" value="cpf_cliente" style="text;strokeColor=none;fillColor=none;spacingLeft=4;spacingRight=4;overflow=hidden;rotatable=0;points=[[0,0.5],[1,0.5]];portConstraint=eastwest;fontSize=12;whiteSpace=wrap;html=1;" parent="LzIiBjol5RYh9NfpuOXS-1" vertex="1">
          <mxGeometry y="146" width="160" height="30" as="geometry" />
        </mxCell>
        <mxCell id="LzIiBjol5RYh9NfpuOXS-7" value="email_cliente" style="text;strokeColor=none;fillColor=none;spacingLeft=4;spacingRight=4;overflow=hidden;rotatable=0;points=[[0,0.5],[1,0.5]];portConstraint=eastwest;fontSize=12;whiteSpace=wrap;html=1;" parent="LzIiBjol5RYh9NfpuOXS-1" vertex="1">
          <mxGeometry y="176" width="160" height="30" as="geometry" />
        </mxCell>
        <mxCell id="LzIiBjol5RYh9NfpuOXS-8" value="endreço_cliente" style="text;strokeColor=none;fillColor=none;spacingLeft=4;spacingRight=4;overflow=hidden;rotatable=0;points=[[0,0.5],[1,0.5]];portConstraint=eastwest;fontSize=12;whiteSpace=wrap;html=1;" parent="LzIiBjol5RYh9NfpuOXS-1" vertex="1">
          <mxGeometry y="206" width="160" height="30" as="geometry" />
        </mxCell>
        <mxCell id="LzIiBjol5RYh9NfpuOXS-9" value="telefone_cliente" style="text;strokeColor=none;fillColor=none;spacingLeft=4;spacingRight=4;overflow=hidden;rotatable=0;points=[[0,0.5],[1,0.5]];portConstraint=eastwest;fontSize=12;whiteSpace=wrap;html=1;" parent="LzIiBjol5RYh9NfpuOXS-1" vertex="1">
          <mxGeometry y="236" width="160" height="30" as="geometry" />
        </mxCell>
        <mxCell id="LzIiBjol5RYh9NfpuOXS-14" value="idade_cliente" style="text;strokeColor=none;fillColor=none;spacingLeft=4;spacingRight=4;overflow=hidden;rotatable=0;points=[[0,0.5],[1,0.5]];portConstraint=eastwest;fontSize=12;whiteSpace=wrap;html=1;" parent="LzIiBjol5RYh9NfpuOXS-1" vertex="1">
          <mxGeometry y="266" width="160" height="30" as="geometry" />
        </mxCell>
        <mxCell id="LzIiBjol5RYh9NfpuOXS-10" value="Produtos" style="swimlane;fontStyle=0;childLayout=stackLayout;horizontal=1;startSize=26;horizontalStack=0;resizeParent=1;resizeParentMax=0;resizeLast=0;collapsible=1;marginBottom=0;align=center;fontSize=14;strokeColor=#999900;fillColor=#999900;" parent="1" vertex="1">
          <mxGeometry x="620" y="60" width="160" height="206" as="geometry" />
        </mxCell>
        <mxCell id="LzIiBjol5RYh9NfpuOXS-11" value="id_produtos" style="text;strokeColor=none;fillColor=none;spacingLeft=4;spacingRight=4;overflow=hidden;rotatable=0;points=[[0,0.5],[1,0.5]];portConstraint=eastwest;fontSize=12;whiteSpace=wrap;html=1;" parent="LzIiBjol5RYh9NfpuOXS-10" vertex="1">
          <mxGeometry y="26" width="160" height="30" as="geometry" />
        </mxCell>
        <mxCell id="LzIiBjol5RYh9NfpuOXS-12" value="nome_produtos" style="text;strokeColor=none;fillColor=none;spacingLeft=4;spacingRight=4;overflow=hidden;rotatable=0;points=[[0,0.5],[1,0.5]];portConstraint=eastwest;fontSize=12;whiteSpace=wrap;html=1;" parent="LzIiBjol5RYh9NfpuOXS-10" vertex="1">
          <mxGeometry y="56" width="160" height="30" as="geometry" />
        </mxCell>
        <mxCell id="LzIiBjol5RYh9NfpuOXS-13" value="categoria_produtos" style="text;strokeColor=none;fillColor=none;spacingLeft=4;spacingRight=4;overflow=hidden;rotatable=0;points=[[0,0.5],[1,0.5]];portConstraint=eastwest;fontSize=12;whiteSpace=wrap;html=1;" parent="LzIiBjol5RYh9NfpuOXS-10" vertex="1">
          <mxGeometry y="86" width="160" height="30" as="geometry" />
        </mxCell>
        <mxCell id="LzIiBjol5RYh9NfpuOXS-20" value="qtd_produtos_estoque" style="text;strokeColor=none;fillColor=none;spacingLeft=4;spacingRight=4;overflow=hidden;rotatable=0;points=[[0,0.5],[1,0.5]];portConstraint=eastwest;fontSize=12;whiteSpace=wrap;html=1;" parent="LzIiBjol5RYh9NfpuOXS-10" vertex="1">
          <mxGeometry y="116" width="160" height="30" as="geometry" />
        </mxCell>
        <mxCell id="1At6zHU8KCH77SDRweXK-2" value="vlr_produtos" style="text;strokeColor=none;fillColor=none;spacingLeft=4;spacingRight=4;overflow=hidden;rotatable=0;points=[[0,0.5],[1,0.5]];portConstraint=eastwest;fontSize=12;whiteSpace=wrap;html=1;" parent="LzIiBjol5RYh9NfpuOXS-10" vertex="1">
          <mxGeometry y="146" width="160" height="30" as="geometry" />
        </mxCell>
        <mxCell id="ZbpFBa2fLIPzV6xpQ6Kk-47" value="id_produtos_fornecidos" style="text;strokeColor=none;fillColor=none;spacingLeft=4;spacingRight=4;overflow=hidden;rotatable=0;points=[[0,0.5],[1,0.5]];portConstraint=eastwest;fontSize=12;whiteSpace=wrap;html=1;" parent="LzIiBjol5RYh9NfpuOXS-10" vertex="1">
          <mxGeometry y="176" width="160" height="30" as="geometry" />
        </mxCell>
        <mxCell id="LzIiBjol5RYh9NfpuOXS-15" value="venda" style="swimlane;fontStyle=0;childLayout=stackLayout;horizontal=1;startSize=26;horizontalStack=0;resizeParent=1;resizeParentMax=0;resizeLast=0;collapsible=1;marginBottom=0;align=center;fontSize=14;fillColor=#000066;fontColor=#FFFFFF;" parent="1" vertex="1">
          <mxGeometry x="440" y="250" width="160" height="266" as="geometry" />
        </mxCell>
        <mxCell id="1At6zHU8KCH77SDRweXK-11" value="id_venda" style="text;strokeColor=none;fillColor=none;spacingLeft=4;spacingRight=4;overflow=hidden;rotatable=0;points=[[0,0.5],[1,0.5]];portConstraint=eastwest;fontSize=12;whiteSpace=wrap;html=1;" parent="LzIiBjol5RYh9NfpuOXS-15" vertex="1">
          <mxGeometry y="26" width="160" height="30" as="geometry" />
        </mxCell>
        <mxCell id="uCx2JT85m2AYH9FLF3Dl-8" value="id_carrinho" style="text;strokeColor=none;fillColor=none;spacingLeft=4;spacingRight=4;overflow=hidden;rotatable=0;points=[[0,0.5],[1,0.5]];portConstraint=eastwest;fontSize=12;whiteSpace=wrap;html=1;" parent="LzIiBjol5RYh9NfpuOXS-15" vertex="1">
          <mxGeometry y="56" width="160" height="30" as="geometry" />
        </mxCell>
        <mxCell id="3jM0YGJ6rBckpwlpfo61-4" value="id_cliente" style="text;strokeColor=none;fillColor=none;spacingLeft=4;spacingRight=4;overflow=hidden;rotatable=0;points=[[0,0.5],[1,0.5]];portConstraint=eastwest;fontSize=12;whiteSpace=wrap;html=1;" parent="LzIiBjol5RYh9NfpuOXS-15" vertex="1">
          <mxGeometry y="86" width="160" height="30" as="geometry" />
        </mxCell>
        <mxCell id="uCx2JT85m2AYH9FLF3Dl-16" value="vlr_frete" style="text;strokeColor=none;fillColor=none;spacingLeft=4;spacingRight=4;overflow=hidden;rotatable=0;points=[[0,0.5],[1,0.5]];portConstraint=eastwest;fontSize=12;whiteSpace=wrap;html=1;" parent="LzIiBjol5RYh9NfpuOXS-15" vertex="1">
          <mxGeometry y="116" width="160" height="30" as="geometry" />
        </mxCell>
        <mxCell id="3jM0YGJ6rBckpwlpfo61-5" value="id_pagamento" style="text;strokeColor=none;fillColor=none;spacingLeft=4;spacingRight=4;overflow=hidden;rotatable=0;points=[[0,0.5],[1,0.5]];portConstraint=eastwest;fontSize=12;whiteSpace=wrap;html=1;" parent="LzIiBjol5RYh9NfpuOXS-15" vertex="1">
          <mxGeometry y="146" width="160" height="30" as="geometry" />
        </mxCell>
        <mxCell id="JTO30t6Z5DcZawrtJ4lc-3" value="vlr_venda_total" style="text;strokeColor=none;fillColor=none;spacingLeft=4;spacingRight=4;overflow=hidden;rotatable=0;points=[[0,0.5],[1,0.5]];portConstraint=eastwest;fontSize=12;whiteSpace=wrap;html=1;" parent="LzIiBjol5RYh9NfpuOXS-15" vertex="1">
          <mxGeometry y="176" width="160" height="30" as="geometry" />
        </mxCell>
        <mxCell id="3jM0YGJ6rBckpwlpfo61-7" value="id_status" style="text;strokeColor=none;fillColor=none;spacingLeft=4;spacingRight=4;overflow=hidden;rotatable=0;points=[[0,0.5],[1,0.5]];portConstraint=eastwest;fontSize=12;whiteSpace=wrap;html=1;" parent="LzIiBjol5RYh9NfpuOXS-15" vertex="1">
          <mxGeometry y="206" width="160" height="30" as="geometry" />
        </mxCell>
        <mxCell id="ZbpFBa2fLIPzV6xpQ6Kk-1" value="id_produtos_fornecidos" style="text;strokeColor=none;fillColor=none;spacingLeft=4;spacingRight=4;overflow=hidden;rotatable=0;points=[[0,0.5],[1,0.5]];portConstraint=eastwest;fontSize=12;whiteSpace=wrap;html=1;" parent="LzIiBjol5RYh9NfpuOXS-15" vertex="1">
          <mxGeometry y="236" width="160" height="30" as="geometry" />
        </mxCell>
        <mxCell id="1At6zHU8KCH77SDRweXK-3" value="status_venda" style="swimlane;fontStyle=0;childLayout=stackLayout;horizontal=1;startSize=26;horizontalStack=0;resizeParent=1;resizeParentMax=0;resizeLast=0;collapsible=1;marginBottom=0;align=center;fontSize=14;strokeColor=#666666;fillColor=#4D4D4D;" parent="1" vertex="1">
          <mxGeometry x="40" y="556" width="160" height="176" as="geometry" />
        </mxCell>
        <mxCell id="1At6zHU8KCH77SDRweXK-4" value="id_status" style="text;strokeColor=none;fillColor=none;spacingLeft=4;spacingRight=4;overflow=hidden;rotatable=0;points=[[0,0.5],[1,0.5]];portConstraint=eastwest;fontSize=12;whiteSpace=wrap;html=1;" parent="1At6zHU8KCH77SDRweXK-3" vertex="1">
          <mxGeometry y="26" width="160" height="30" as="geometry" />
        </mxCell>
        <mxCell id="uCx2JT85m2AYH9FLF3Dl-17" value="id_pagamento" style="text;strokeColor=none;fillColor=none;spacingLeft=4;spacingRight=4;overflow=hidden;rotatable=0;points=[[0,0.5],[1,0.5]];portConstraint=eastwest;fontSize=12;whiteSpace=wrap;html=1;" parent="1At6zHU8KCH77SDRweXK-3" vertex="1">
          <mxGeometry y="56" width="160" height="30" as="geometry" />
        </mxCell>
        <mxCell id="1At6zHU8KCH77SDRweXK-5" value="data_hora_venda" style="text;strokeColor=none;fillColor=none;spacingLeft=4;spacingRight=4;overflow=hidden;rotatable=0;points=[[0,0.5],[1,0.5]];portConstraint=eastwest;fontSize=12;whiteSpace=wrap;html=1;" parent="1At6zHU8KCH77SDRweXK-3" vertex="1">
          <mxGeometry y="86" width="160" height="30" as="geometry" />
        </mxCell>
        <mxCell id="1At6zHU8KCH77SDRweXK-6" value="tempo_espera" style="text;strokeColor=none;fillColor=none;spacingLeft=4;spacingRight=4;overflow=hidden;rotatable=0;points=[[0,0.5],[1,0.5]];portConstraint=eastwest;fontSize=12;whiteSpace=wrap;html=1;" parent="1At6zHU8KCH77SDRweXK-3" vertex="1">
          <mxGeometry y="116" width="160" height="30" as="geometry" />
        </mxCell>
        <mxCell id="3jM0YGJ6rBckpwlpfo61-6" value="status_venda" style="text;strokeColor=none;fillColor=none;spacingLeft=4;spacingRight=4;overflow=hidden;rotatable=0;points=[[0,0.5],[1,0.5]];portConstraint=eastwest;fontSize=12;whiteSpace=wrap;html=1;" parent="1At6zHU8KCH77SDRweXK-3" vertex="1">
          <mxGeometry y="146" width="160" height="30" as="geometry" />
        </mxCell>
        <mxCell id="3jM0YGJ6rBckpwlpfo61-8" value="Produto_vendedor" style="swimlane;fontStyle=0;childLayout=stackLayout;horizontal=1;startSize=26;horizontalStack=0;resizeParent=1;resizeParentMax=0;resizeLast=0;collapsible=1;marginBottom=0;align=center;fontSize=14;fillColor=#CCCC00;strokeColor=#CCCC00;" parent="1" vertex="1">
          <mxGeometry x="930" y="30" width="180" height="176" as="geometry" />
        </mxCell>
        <mxCell id="3jM0YGJ6rBckpwlpfo61-9" value="id_produtos_fornecidos" style="text;strokeColor=none;fillColor=none;spacingLeft=4;spacingRight=4;overflow=hidden;rotatable=0;points=[[0,0.5],[1,0.5]];portConstraint=eastwest;fontSize=12;whiteSpace=wrap;html=1;" parent="3jM0YGJ6rBckpwlpfo61-8" vertex="1">
          <mxGeometry y="26" width="180" height="30" as="geometry" />
        </mxCell>
        <mxCell id="ZbpFBa2fLIPzV6xpQ6Kk-33" value="id_produtos" style="text;strokeColor=none;fillColor=none;spacingLeft=4;spacingRight=4;overflow=hidden;rotatable=0;points=[[0,0.5],[1,0.5]];portConstraint=eastwest;fontSize=12;whiteSpace=wrap;html=1;" parent="3jM0YGJ6rBckpwlpfo61-8" vertex="1">
          <mxGeometry y="56" width="180" height="30" as="geometry" />
        </mxCell>
        <mxCell id="3jM0YGJ6rBckpwlpfo61-20" value="id_vendedor" style="text;strokeColor=none;fillColor=none;spacingLeft=4;spacingRight=4;overflow=hidden;rotatable=0;points=[[0,0.5],[1,0.5]];portConstraint=eastwest;fontSize=12;whiteSpace=wrap;html=1;" parent="3jM0YGJ6rBckpwlpfo61-8" vertex="1">
          <mxGeometry y="86" width="180" height="30" as="geometry" />
        </mxCell>
        <mxCell id="3jM0YGJ6rBckpwlpfo61-12" value="qtd_estoque_fornecedor" style="text;strokeColor=none;fillColor=none;spacingLeft=4;spacingRight=4;overflow=hidden;rotatable=0;points=[[0,0.5],[1,0.5]];portConstraint=eastwest;fontSize=12;whiteSpace=wrap;html=1;" parent="3jM0YGJ6rBckpwlpfo61-8" vertex="1">
          <mxGeometry y="116" width="180" height="30" as="geometry" />
        </mxCell>
        <mxCell id="3jM0YGJ6rBckpwlpfo61-13" value="vlr_produtos_fornecedor" style="text;strokeColor=none;fillColor=none;spacingLeft=4;spacingRight=4;overflow=hidden;rotatable=0;points=[[0,0.5],[1,0.5]];portConstraint=eastwest;fontSize=12;whiteSpace=wrap;html=1;" parent="3jM0YGJ6rBckpwlpfo61-8" vertex="1">
          <mxGeometry y="146" width="180" height="30" as="geometry" />
        </mxCell>
        <mxCell id="3jM0YGJ6rBckpwlpfo61-23" value="Vendedor" style="swimlane;fontStyle=0;childLayout=stackLayout;horizontal=1;startSize=26;horizontalStack=0;resizeParent=1;resizeParentMax=0;resizeLast=0;collapsible=1;marginBottom=0;align=center;fontSize=14;fillColor=#003366;strokeColor=#003366;fontColor=#FFFFFF;" parent="1" vertex="1">
          <mxGeometry x="920" y="320" width="180" height="236" as="geometry" />
        </mxCell>
        <mxCell id="3jM0YGJ6rBckpwlpfo61-24" value="id_vendedor" style="text;strokeColor=none;fillColor=none;spacingLeft=4;spacingRight=4;overflow=hidden;rotatable=0;points=[[0,0.5],[1,0.5]];portConstraint=eastwest;fontSize=12;whiteSpace=wrap;html=1;" parent="3jM0YGJ6rBckpwlpfo61-23" vertex="1">
          <mxGeometry y="26" width="180" height="30" as="geometry" />
        </mxCell>
        <mxCell id="ZbpFBa2fLIPzV6xpQ6Kk-46" value="nome_vendedor" style="text;strokeColor=none;fillColor=none;spacingLeft=4;spacingRight=4;overflow=hidden;rotatable=0;points=[[0,0.5],[1,0.5]];portConstraint=eastwest;fontSize=12;whiteSpace=wrap;html=1;" parent="3jM0YGJ6rBckpwlpfo61-23" vertex="1">
          <mxGeometry y="56" width="180" height="30" as="geometry" />
        </mxCell>
        <mxCell id="3jM0YGJ6rBckpwlpfo61-26" value="login_vendedor" style="text;strokeColor=none;fillColor=none;spacingLeft=4;spacingRight=4;overflow=hidden;rotatable=0;points=[[0,0.5],[1,0.5]];portConstraint=eastwest;fontSize=12;whiteSpace=wrap;html=1;" parent="3jM0YGJ6rBckpwlpfo61-23" vertex="1">
          <mxGeometry y="86" width="180" height="30" as="geometry" />
        </mxCell>
        <mxCell id="3jM0YGJ6rBckpwlpfo61-27" value="senha_vendedor" style="text;strokeColor=none;fillColor=none;spacingLeft=4;spacingRight=4;overflow=hidden;rotatable=0;points=[[0,0.5],[1,0.5]];portConstraint=eastwest;fontSize=12;whiteSpace=wrap;html=1;" parent="3jM0YGJ6rBckpwlpfo61-23" vertex="1">
          <mxGeometry y="116" width="180" height="30" as="geometry" />
        </mxCell>
        <mxCell id="3jM0YGJ6rBckpwlpfo61-28" value="contato_vendedor" style="text;strokeColor=none;fillColor=none;spacingLeft=4;spacingRight=4;overflow=hidden;rotatable=0;points=[[0,0.5],[1,0.5]];portConstraint=eastwest;fontSize=12;whiteSpace=wrap;html=1;" parent="3jM0YGJ6rBckpwlpfo61-23" vertex="1">
          <mxGeometry y="146" width="180" height="30" as="geometry" />
        </mxCell>
        <mxCell id="3jM0YGJ6rBckpwlpfo61-29" value="admin" style="text;strokeColor=none;fillColor=none;spacingLeft=4;spacingRight=4;overflow=hidden;rotatable=0;points=[[0,0.5],[1,0.5]];portConstraint=eastwest;fontSize=12;whiteSpace=wrap;html=1;" parent="3jM0YGJ6rBckpwlpfo61-23" vertex="1">
          <mxGeometry y="176" width="180" height="30" as="geometry" />
        </mxCell>
        <mxCell id="ZbpFBa2fLIPzV6xpQ6Kk-49" value="id_loja_vendedor" style="text;strokeColor=none;fillColor=none;spacingLeft=4;spacingRight=4;overflow=hidden;rotatable=0;points=[[0,0.5],[1,0.5]];portConstraint=eastwest;fontSize=12;whiteSpace=wrap;html=1;" parent="3jM0YGJ6rBckpwlpfo61-23" vertex="1">
          <mxGeometry y="206" width="180" height="30" as="geometry" />
        </mxCell>
        <mxCell id="3jM0YGJ6rBckpwlpfo61-30" value="Loja_fisica" style="swimlane;fontStyle=0;childLayout=stackLayout;horizontal=1;startSize=26;horizontalStack=0;resizeParent=1;resizeParentMax=0;resizeLast=0;collapsible=1;marginBottom=0;align=center;fontSize=14;fillColor=#3399FF;strokeColor=#3399FF;" parent="1" vertex="1">
          <mxGeometry x="700" y="600" width="180" height="176" as="geometry" />
        </mxCell>
        <mxCell id="3jM0YGJ6rBckpwlpfo61-31" value="id_loja_vendedor" style="text;strokeColor=none;fillColor=none;spacingLeft=4;spacingRight=4;overflow=hidden;rotatable=0;points=[[0,0.5],[1,0.5]];portConstraint=eastwest;fontSize=12;whiteSpace=wrap;html=1;" parent="3jM0YGJ6rBckpwlpfo61-30" vertex="1">
          <mxGeometry y="26" width="180" height="30" as="geometry" />
        </mxCell>
        <mxCell id="ZbpFBa2fLIPzV6xpQ6Kk-44" value="id_vendedor" style="text;strokeColor=none;fillColor=none;spacingLeft=4;spacingRight=4;overflow=hidden;rotatable=0;points=[[0,0.5],[1,0.5]];portConstraint=eastwest;fontSize=12;whiteSpace=wrap;html=1;" parent="3jM0YGJ6rBckpwlpfo61-30" vertex="1">
          <mxGeometry y="56" width="180" height="30" as="geometry" />
        </mxCell>
        <mxCell id="3jM0YGJ6rBckpwlpfo61-32" value="nome_loja" style="text;strokeColor=none;fillColor=none;spacingLeft=4;spacingRight=4;overflow=hidden;rotatable=0;points=[[0,0.5],[1,0.5]];portConstraint=eastwest;fontSize=12;whiteSpace=wrap;html=1;" parent="3jM0YGJ6rBckpwlpfo61-30" vertex="1">
          <mxGeometry y="86" width="180" height="30" as="geometry" />
        </mxCell>
        <mxCell id="3jM0YGJ6rBckpwlpfo61-33" value="endereco_loja" style="text;strokeColor=none;fillColor=none;spacingLeft=4;spacingRight=4;overflow=hidden;rotatable=0;points=[[0,0.5],[1,0.5]];portConstraint=eastwest;fontSize=12;whiteSpace=wrap;html=1;" parent="3jM0YGJ6rBckpwlpfo61-30" vertex="1">
          <mxGeometry y="116" width="180" height="30" as="geometry" />
        </mxCell>
        <mxCell id="3jM0YGJ6rBckpwlpfo61-34" value="telefone_loja" style="text;strokeColor=none;fillColor=none;spacingLeft=4;spacingRight=4;overflow=hidden;rotatable=0;points=[[0,0.5],[1,0.5]];portConstraint=eastwest;fontSize=12;whiteSpace=wrap;html=1;" parent="3jM0YGJ6rBckpwlpfo61-30" vertex="1">
          <mxGeometry y="146" width="180" height="30" as="geometry" />
        </mxCell>
        <mxCell id="uCx2JT85m2AYH9FLF3Dl-1" value="carrinho_venda" style="swimlane;fontStyle=0;childLayout=stackLayout;horizontal=1;startSize=26;horizontalStack=0;resizeParent=1;resizeParentMax=0;resizeLast=0;collapsible=1;marginBottom=0;align=center;fontSize=14;fillColor=#666600;strokeColor=#666600;fontColor=#FFFFFF;" parent="1" vertex="1">
          <mxGeometry x="380" y="30" width="160" height="146" as="geometry" />
        </mxCell>
        <mxCell id="uCx2JT85m2AYH9FLF3Dl-2" value="id_carrinho" style="text;strokeColor=none;fillColor=none;spacingLeft=4;spacingRight=4;overflow=hidden;rotatable=0;points=[[0,0.5],[1,0.5]];portConstraint=eastwest;fontSize=12;whiteSpace=wrap;html=1;" parent="uCx2JT85m2AYH9FLF3Dl-1" vertex="1">
          <mxGeometry y="26" width="160" height="30" as="geometry" />
        </mxCell>
        <mxCell id="uCx2JT85m2AYH9FLF3Dl-3" value="id_produtos" style="text;strokeColor=none;fillColor=none;spacingLeft=4;spacingRight=4;overflow=hidden;rotatable=0;points=[[0,0.5],[1,0.5]];portConstraint=eastwest;fontSize=12;whiteSpace=wrap;html=1;" parent="uCx2JT85m2AYH9FLF3Dl-1" vertex="1">
          <mxGeometry y="56" width="160" height="30" as="geometry" />
        </mxCell>
        <mxCell id="uCx2JT85m2AYH9FLF3Dl-4" value="qtd_produtos" style="text;strokeColor=none;fillColor=none;spacingLeft=4;spacingRight=4;overflow=hidden;rotatable=0;points=[[0,0.5],[1,0.5]];portConstraint=eastwest;fontSize=12;whiteSpace=wrap;html=1;" parent="uCx2JT85m2AYH9FLF3Dl-1" vertex="1">
          <mxGeometry y="86" width="160" height="30" as="geometry" />
        </mxCell>
        <mxCell id="uCx2JT85m2AYH9FLF3Dl-15" value="vlr_carrinho" style="text;strokeColor=none;fillColor=none;spacingLeft=4;spacingRight=4;overflow=hidden;rotatable=0;points=[[0,0.5],[1,0.5]];portConstraint=eastwest;fontSize=12;whiteSpace=wrap;html=1;" parent="uCx2JT85m2AYH9FLF3Dl-1" vertex="1">
          <mxGeometry y="116" width="160" height="30" as="geometry" />
        </mxCell>
        <mxCell id="uCx2JT85m2AYH9FLF3Dl-9" value="forma_pagamento" style="swimlane;fontStyle=0;childLayout=stackLayout;horizontal=1;startSize=26;horizontalStack=0;resizeParent=1;resizeParentMax=0;resizeLast=0;collapsible=1;marginBottom=0;align=center;fontSize=14;fillColor=#FFFF00;strokeColor=#FFFF00;" parent="1" vertex="1">
          <mxGeometry x="50" y="362" width="160" height="176" as="geometry" />
        </mxCell>
        <mxCell id="uCx2JT85m2AYH9FLF3Dl-11" value="id_pagamento" style="text;strokeColor=none;fillColor=none;spacingLeft=4;spacingRight=4;overflow=hidden;rotatable=0;points=[[0,0.5],[1,0.5]];portConstraint=eastwest;fontSize=12;whiteSpace=wrap;html=1;" parent="uCx2JT85m2AYH9FLF3Dl-9" vertex="1">
          <mxGeometry y="26" width="160" height="30" as="geometry" />
        </mxCell>
        <mxCell id="uCx2JT85m2AYH9FLF3Dl-10" value="id_venda" style="text;strokeColor=none;fillColor=none;spacingLeft=4;spacingRight=4;overflow=hidden;rotatable=0;points=[[0,0.5],[1,0.5]];portConstraint=eastwest;fontSize=12;whiteSpace=wrap;html=1;" parent="uCx2JT85m2AYH9FLF3Dl-9" vertex="1">
          <mxGeometry y="56" width="160" height="30" as="geometry" />
        </mxCell>
        <mxCell id="uCx2JT85m2AYH9FLF3Dl-12" value="id_cliente" style="text;strokeColor=none;fillColor=none;spacingLeft=4;spacingRight=4;overflow=hidden;rotatable=0;points=[[0,0.5],[1,0.5]];portConstraint=eastwest;fontSize=12;whiteSpace=wrap;html=1;" parent="uCx2JT85m2AYH9FLF3Dl-9" vertex="1">
          <mxGeometry y="86" width="160" height="30" as="geometry" />
        </mxCell>
        <mxCell id="uCx2JT85m2AYH9FLF3Dl-19" value="forma_pagamento" style="text;strokeColor=none;fillColor=none;spacingLeft=4;spacingRight=4;overflow=hidden;rotatable=0;points=[[0,0.5],[1,0.5]];portConstraint=eastwest;fontSize=12;whiteSpace=wrap;html=1;" parent="uCx2JT85m2AYH9FLF3Dl-9" vertex="1">
          <mxGeometry y="116" width="160" height="30" as="geometry" />
        </mxCell>
        <mxCell id="uCx2JT85m2AYH9FLF3Dl-14" value="status_pagamento" style="text;strokeColor=none;fillColor=none;spacingLeft=4;spacingRight=4;overflow=hidden;rotatable=0;points=[[0,0.5],[1,0.5]];portConstraint=eastwest;fontSize=12;whiteSpace=wrap;html=1;" parent="uCx2JT85m2AYH9FLF3Dl-9" vertex="1">
          <mxGeometry y="146" width="160" height="30" as="geometry" />
        </mxCell>
        <mxCell id="uCx2JT85m2AYH9FLF3Dl-20" value="Relatorio" style="swimlane;fontStyle=0;childLayout=stackLayout;horizontal=1;startSize=26;horizontalStack=0;resizeParent=1;resizeParentMax=0;resizeLast=0;collapsible=1;marginBottom=0;align=center;fontSize=14;fillColor=#333333;fontColor=#FFFFFF;" parent="1" vertex="1">
          <mxGeometry x="405" y="618" width="180" height="206" as="geometry" />
        </mxCell>
        <mxCell id="uCx2JT85m2AYH9FLF3Dl-21" value="id_relatorio" style="text;strokeColor=none;fillColor=none;spacingLeft=4;spacingRight=4;overflow=hidden;rotatable=0;points=[[0,0.5],[1,0.5]];portConstraint=eastwest;fontSize=12;whiteSpace=wrap;html=1;" parent="uCx2JT85m2AYH9FLF3Dl-20" vertex="1">
          <mxGeometry y="26" width="180" height="30" as="geometry" />
        </mxCell>
        <mxCell id="ZbpFBa2fLIPzV6xpQ6Kk-2" value="id_venda" style="text;strokeColor=none;fillColor=none;spacingLeft=4;spacingRight=4;overflow=hidden;rotatable=0;points=[[0,0.5],[1,0.5]];portConstraint=eastwest;fontSize=12;whiteSpace=wrap;html=1;" parent="uCx2JT85m2AYH9FLF3Dl-20" vertex="1">
          <mxGeometry y="56" width="180" height="30" as="geometry" />
        </mxCell>
        <mxCell id="uCx2JT85m2AYH9FLF3Dl-22" value="id_loja_vendedor" style="text;strokeColor=none;fillColor=none;spacingLeft=4;spacingRight=4;overflow=hidden;rotatable=0;points=[[0,0.5],[1,0.5]];portConstraint=eastwest;fontSize=12;whiteSpace=wrap;html=1;" parent="uCx2JT85m2AYH9FLF3Dl-20" vertex="1">
          <mxGeometry y="86" width="180" height="30" as="geometry" />
        </mxCell>
        <mxCell id="uCx2JT85m2AYH9FLF3Dl-23" value="total_vendas_loja" style="text;strokeColor=none;fillColor=none;spacingLeft=4;spacingRight=4;overflow=hidden;rotatable=0;points=[[0,0.5],[1,0.5]];portConstraint=eastwest;fontSize=12;whiteSpace=wrap;html=1;" parent="uCx2JT85m2AYH9FLF3Dl-20" vertex="1">
          <mxGeometry y="116" width="180" height="30" as="geometry" />
        </mxCell>
        <mxCell id="uCx2JT85m2AYH9FLF3Dl-24" value="data_inicio" style="text;strokeColor=none;fillColor=none;spacingLeft=4;spacingRight=4;overflow=hidden;rotatable=0;points=[[0,0.5],[1,0.5]];portConstraint=eastwest;fontSize=12;whiteSpace=wrap;html=1;" parent="uCx2JT85m2AYH9FLF3Dl-20" vertex="1">
          <mxGeometry y="146" width="180" height="30" as="geometry" />
        </mxCell>
        <mxCell id="uCx2JT85m2AYH9FLF3Dl-25" value="data_fim" style="text;strokeColor=none;fillColor=none;spacingLeft=4;spacingRight=4;overflow=hidden;rotatable=0;points=[[0,0.5],[1,0.5]];portConstraint=eastwest;fontSize=12;whiteSpace=wrap;html=1;" parent="uCx2JT85m2AYH9FLF3Dl-20" vertex="1">
          <mxGeometry y="176" width="180" height="30" as="geometry" />
        </mxCell>
        <mxCell id="ZbpFBa2fLIPzV6xpQ6Kk-8" style="edgeStyle=orthogonalEdgeStyle;rounded=0;orthogonalLoop=1;jettySize=auto;html=1;entryX=0;entryY=0.5;entryDx=0;entryDy=0;strokeColor=#FF0000;" parent="1" source="LzIiBjol5RYh9NfpuOXS-2" target="3jM0YGJ6rBckpwlpfo61-4" edge="1">
          <mxGeometry relative="1" as="geometry">
            <Array as="points">
              <mxPoint x="290" y="81" />
              <mxPoint x="290" y="350" />
              <mxPoint x="440" y="350" />
            </Array>
          </mxGeometry>
        </mxCell>
        <mxCell id="ZbpFBa2fLIPzV6xpQ6Kk-18" style="edgeStyle=orthogonalEdgeStyle;rounded=0;orthogonalLoop=1;jettySize=auto;html=1;entryX=0;entryY=0.5;entryDx=0;entryDy=0;fillColor=#666600;strokeColor=#666600;" parent="1" source="uCx2JT85m2AYH9FLF3Dl-3" target="LzIiBjol5RYh9NfpuOXS-11" edge="1">
          <mxGeometry relative="1" as="geometry" />
        </mxCell>
        <mxCell id="ZbpFBa2fLIPzV6xpQ6Kk-21" style="edgeStyle=orthogonalEdgeStyle;rounded=0;orthogonalLoop=1;jettySize=auto;html=1;entryX=0;entryY=0.5;entryDx=0;entryDy=0;strokeColor=#666600;" parent="1" source="uCx2JT85m2AYH9FLF3Dl-2" target="uCx2JT85m2AYH9FLF3Dl-8" edge="1">
          <mxGeometry relative="1" as="geometry">
            <Array as="points">
              <mxPoint x="360" y="71" />
              <mxPoint x="360" y="321" />
            </Array>
          </mxGeometry>
        </mxCell>
        <mxCell id="ZbpFBa2fLIPzV6xpQ6Kk-36" style="edgeStyle=orthogonalEdgeStyle;rounded=0;orthogonalLoop=1;jettySize=auto;html=1;strokeColor=#999900;" parent="1" source="LzIiBjol5RYh9NfpuOXS-11" target="ZbpFBa2fLIPzV6xpQ6Kk-33" edge="1">
          <mxGeometry relative="1" as="geometry" />
        </mxCell>
        <mxCell id="ZbpFBa2fLIPzV6xpQ6Kk-48" style="edgeStyle=orthogonalEdgeStyle;rounded=0;orthogonalLoop=1;jettySize=auto;html=1;strokeColor=#CCCC00;" parent="1" edge="1">
          <mxGeometry relative="1" as="geometry">
            <Array as="points">
              <mxPoint x="850" y="70" />
              <mxPoint x="850" y="250" />
            </Array>
            <mxPoint x="930" y="70.00117647058818" as="sourcePoint" />
            <mxPoint x="780" y="250.00117647058818" as="targetPoint" />
          </mxGeometry>
        </mxCell>
        <mxCell id="ZbpFBa2fLIPzV6xpQ6Kk-51" style="edgeStyle=orthogonalEdgeStyle;rounded=0;orthogonalLoop=1;jettySize=auto;html=1;entryX=1;entryY=0.5;entryDx=0;entryDy=0;strokeColor=#3399FF;" parent="1" source="3jM0YGJ6rBckpwlpfo61-31" target="ZbpFBa2fLIPzV6xpQ6Kk-49" edge="1">
          <mxGeometry relative="1" as="geometry" />
        </mxCell>
        <mxCell id="JTO30t6Z5DcZawrtJ4lc-1" style="edgeStyle=orthogonalEdgeStyle;rounded=0;orthogonalLoop=1;jettySize=auto;html=1;entryX=1;entryY=0.5;entryDx=0;entryDy=0;strokeColor=#003366;" parent="1" source="3jM0YGJ6rBckpwlpfo61-24" target="3jM0YGJ6rBckpwlpfo61-20" edge="1">
          <mxGeometry relative="1" as="geometry" />
        </mxCell>
        <mxCell id="JTO30t6Z5DcZawrtJ4lc-2" style="edgeStyle=orthogonalEdgeStyle;rounded=0;orthogonalLoop=1;jettySize=auto;html=1;entryX=0;entryY=0.5;entryDx=0;entryDy=0;strokeColor=#FFFF00;" parent="1" source="uCx2JT85m2AYH9FLF3Dl-11" target="uCx2JT85m2AYH9FLF3Dl-17" edge="1">
          <mxGeometry relative="1" as="geometry">
            <Array as="points">
              <mxPoint x="10" y="403" />
              <mxPoint x="10" y="627" />
            </Array>
          </mxGeometry>
        </mxCell>
        <mxCell id="JTO30t6Z5DcZawrtJ4lc-5" style="edgeStyle=orthogonalEdgeStyle;rounded=0;orthogonalLoop=1;jettySize=auto;html=1;entryX=0;entryY=0.5;entryDx=0;entryDy=0;strokeColor=#FFFF00;" parent="1" source="uCx2JT85m2AYH9FLF3Dl-11" target="3jM0YGJ6rBckpwlpfo61-5" edge="1">
          <mxGeometry relative="1" as="geometry">
            <Array as="points">
              <mxPoint x="220" y="411" />
              <mxPoint x="220" y="411" />
            </Array>
          </mxGeometry>
        </mxCell>
        <mxCell id="JTO30t6Z5DcZawrtJ4lc-7" style="edgeStyle=orthogonalEdgeStyle;rounded=0;orthogonalLoop=1;jettySize=auto;html=1;entryX=0;entryY=0.5;entryDx=0;entryDy=0;strokeColor=#4D4D4D;" parent="1" source="1At6zHU8KCH77SDRweXK-4" target="3jM0YGJ6rBckpwlpfo61-7" edge="1">
          <mxGeometry relative="1" as="geometry" />
        </mxCell>
        <mxCell id="JTO30t6Z5DcZawrtJ4lc-8" style="edgeStyle=orthogonalEdgeStyle;rounded=0;orthogonalLoop=1;jettySize=auto;html=1;entryX=1;entryY=0.5;entryDx=0;entryDy=0;strokeColor=#000066;" parent="1" source="1At6zHU8KCH77SDRweXK-11" target="uCx2JT85m2AYH9FLF3Dl-10" edge="1">
          <mxGeometry relative="1" as="geometry" />
        </mxCell>
        <mxCell id="JTO30t6Z5DcZawrtJ4lc-9" style="edgeStyle=orthogonalEdgeStyle;rounded=0;orthogonalLoop=1;jettySize=auto;html=1;entryX=0;entryY=0.5;entryDx=0;entryDy=0;strokeColor=#FF0000;" parent="1" source="LzIiBjol5RYh9NfpuOXS-2" target="uCx2JT85m2AYH9FLF3Dl-12" edge="1">
          <mxGeometry relative="1" as="geometry" />
        </mxCell>
        <mxCell id="JTO30t6Z5DcZawrtJ4lc-11" style="edgeStyle=orthogonalEdgeStyle;rounded=0;orthogonalLoop=1;jettySize=auto;html=1;entryX=1;entryY=0.5;entryDx=0;entryDy=0;strokeColor=#CCCC00;" parent="1" source="3jM0YGJ6rBckpwlpfo61-9" target="ZbpFBa2fLIPzV6xpQ6Kk-1" edge="1">
          <mxGeometry relative="1" as="geometry">
            <Array as="points">
              <mxPoint x="890" y="71" />
              <mxPoint x="890" y="501" />
            </Array>
          </mxGeometry>
        </mxCell>
        <mxCell id="JTO30t6Z5DcZawrtJ4lc-12" style="edgeStyle=orthogonalEdgeStyle;rounded=0;orthogonalLoop=1;jettySize=auto;html=1;entryX=1;entryY=0.5;entryDx=0;entryDy=0;fillColor=#000066;strokeColor=#000099;" parent="1" source="1At6zHU8KCH77SDRweXK-11" target="ZbpFBa2fLIPzV6xpQ6Kk-2" edge="1">
          <mxGeometry relative="1" as="geometry">
            <Array as="points">
              <mxPoint x="630" y="291" />
              <mxPoint x="630" y="689" />
            </Array>
          </mxGeometry>
        </mxCell>
        <mxCell id="Yvwb5e3YZK-YjnEXnUoj-1" style="edgeStyle=orthogonalEdgeStyle;rounded=0;orthogonalLoop=1;jettySize=auto;html=1;strokeColor=#003366;" edge="1" parent="1" source="3jM0YGJ6rBckpwlpfo61-24" target="ZbpFBa2fLIPzV6xpQ6Kk-44">
          <mxGeometry relative="1" as="geometry" />
        </mxCell>
        <mxCell id="Yvwb5e3YZK-YjnEXnUoj-2" style="edgeStyle=orthogonalEdgeStyle;rounded=0;orthogonalLoop=1;jettySize=auto;html=1;entryX=1;entryY=0.5;entryDx=0;entryDy=0;strokeColor=#3399FF;" edge="1" parent="1" source="3jM0YGJ6rBckpwlpfo61-31" target="uCx2JT85m2AYH9FLF3Dl-22">
          <mxGeometry relative="1" as="geometry" />
        </mxCell>
      </root>
    </mxGraphModel>
  </diagram>
</mxfile>
